<?xml version="1.0" encoding="iso-8859-1"?>
<!-- Generator: Adobe Illustrator 18.0.0, SVG Export Plug-In . SVG Version: 6.00 Build 0)  -->
<!DOCTYPE svg PUBLIC "-//W3C//DTD SVG 1.1//EN" "http://www.w3.org/Graphics/SVG/1.1/DTD/svg11.dtd">
<svg version="1.1" id="Capa_1" xmlns="http://www.w3.org/2000/svg" xmlns:xlink="http://www.w3.org/1999/xlink" x="0px" y="0px"
	 viewBox="0 0 477.518 477.518" style="enable-background:new 0 0 477.518 477.518;" xml:space="preserve">
<path d="M436.162,165.281c-38.291-78.362-79.319-83.836-117.516-65.158c-11.586,5.662-21.54,12.924-28.772,22.443H187.661
	c-7.232-9.519-17.186-16.781-28.772-22.443c-38.198-18.678-79.227-13.204-117.517,65.158
	c-38.321,78.37-59.38,199.953-21.182,218.633c26.549,12.97,74.699-27.203,114.468-79.195h208.187
	c39.769,51.992,87.919,92.165,114.468,79.195C495.541,365.234,474.452,243.651,436.162,165.281z M178.298,214.249
	c0,3.166-2.628,5.732-5.864,5.732h-28.041v28.742c0,3.165-2.613,5.732-5.848,5.732h-9.922H118.7c-3.219,0-5.848-2.567-5.848-5.732
	V219.98H84.812c-3.234,0-5.864-2.566-5.864-5.732V194.8c0-3.165,2.629-5.73,5.864-5.73h28.041v-28.75
	c0-3.164,2.629-5.732,5.848-5.732h9.924h9.922c3.235,0,5.848,2.567,5.848,5.732v28.75h28.041c3.236,0,5.864,2.566,5.864,5.73
	V214.249z M359.626,165.305c0,9.884-7.993,17.893-17.885,17.893s-17.886-8.009-17.886-17.893c0-9.884,7.995-17.893,17.886-17.893
	S359.626,155.421,359.626,165.305z M304.851,220.089c-9.892,0-17.886-8.017-17.886-17.901c0-9.868,7.995-17.885,17.886-17.885
	s17.885,8.017,17.885,17.885C322.736,212.071,314.742,220.089,304.851,220.089z M378.698,220.089
	c-9.892,0-17.886-8.017-17.886-17.901c0-9.868,7.995-17.885,17.886-17.885s17.885,8.017,17.885,17.885
	C396.583,212.071,388.59,220.089,378.698,220.089z M341.741,256.979c-9.892,0-17.886-8.009-17.886-17.893
	c0-9.884,7.995-17.893,17.886-17.893s17.885,8.009,17.885,17.893C359.626,248.97,351.633,256.979,341.741,256.979z"/>
<g>
</g>
<g>
</g>
<g>
</g>
<g>
</g>
<g>
</g>
<g>
</g>
<g>
</g>
<g>
</g>
<g>
</g>
<g>
</g>
<g>
</g>
<g>
</g>
<g>
</g>
<g>
</g>
<g>
</g>
</svg>
